M48
;GenerationSoftware,Autodesk,EAGLE,9.1.0*%
;CreationDate,2018-07-29T06:40:26Z*%
FMAT,2
ICI,OFF
METRIC,TZ,000.000
T2C0.850
T1C1.016
%
G90
M71
T1
X2540Y20320
X2540Y33020
X2540Y30480
X2540Y27940
X2540Y25400
X2540Y22860
X2540Y2540
X2540Y15240
X2540Y12700
X2540Y10160
X2540Y7620
X2540Y5080
X35560Y40640
X50800Y2540
X50800Y5080
X50800Y7620
X50800Y10160
X50800Y12700
X50800Y15240
X50800Y17780
X50800Y20320
X50800Y24130
X50800Y26670
X50800Y29210
X50800Y31750
X50800Y34290
X50800Y36830
X50800Y39370
X50800Y41910
X50800Y44450
X50800Y46990
X2540Y35560
X2540Y38100
X40640Y10160
X38100Y10160
X35560Y10160
X40640Y15240
X38100Y15240
X35560Y15240
X40640Y20320
X38100Y20320
X35560Y20320
X40640Y25400
X38100Y25400
X35560Y25400
X40640Y30480
X38100Y30480
X35560Y30480
X40640Y35560
X38100Y35560
X35560Y35560
X40640Y40640
X38100Y40640
T2
X35560Y3810
M30