G04 EAGLE Gerber X2 export*
%TF.Part,Single*%
%TF.FileFunction,Soldermask,Top,1*%
%TF.FilePolarity,Negative*%
%TF.GenerationSoftware,Autodesk,EAGLE,9.1.0*%
%TF.CreationDate,2018-07-29T06:40:26Z*%
G75*
%MOMM*%
%FSLAX34Y34*%
%LPD*%
%AMOC8*
5,1,8,0,0,1.08239X$1,22.5*%
G01*
%ADD10C,2.082800*%
%ADD11R,2.743200X5.283200*%
%ADD12C,1.478200*%


D10*
X25400Y330200D03*
X25400Y304800D03*
X25400Y279400D03*
X25400Y254000D03*
X25400Y228600D03*
X25400Y203200D03*
X25400Y152400D03*
X25400Y127000D03*
X25400Y101600D03*
X25400Y76200D03*
X25400Y50800D03*
X25400Y25400D03*
X508000Y25400D03*
X508000Y50800D03*
X508000Y76200D03*
X508000Y101600D03*
X508000Y127000D03*
X508000Y152400D03*
X508000Y177800D03*
X508000Y203200D03*
X508000Y241300D03*
X508000Y266700D03*
X508000Y292100D03*
X508000Y317500D03*
X508000Y342900D03*
X508000Y368300D03*
X508000Y393700D03*
X508000Y419100D03*
X508000Y444500D03*
X508000Y469900D03*
X25400Y355600D03*
X25400Y381000D03*
X406400Y101600D03*
X381000Y101600D03*
X355600Y101600D03*
X406400Y152400D03*
X381000Y152400D03*
X355600Y152400D03*
X406400Y203200D03*
X381000Y203200D03*
X355600Y203200D03*
X406400Y254000D03*
X381000Y254000D03*
X355600Y254000D03*
X406400Y304800D03*
X381000Y304800D03*
X355600Y304800D03*
X406400Y355600D03*
X381000Y355600D03*
X355600Y355600D03*
X406400Y406400D03*
X381000Y406400D03*
X355600Y406400D03*
D11*
X406400Y38100D03*
X355600Y38100D03*
D12*
X355600Y38100D03*
M02*
